<?xml version="1.0" standalone="no"?>
<!DOCTYPE svg PUBLIC "-//W3C//DTD SVG 20010904//EN"
 "http://www.w3.org/TR/2001/REC-SVG-20010904/DTD/svg10.dtd">
<svg version="1.0" xmlns="http://www.w3.org/2000/svg"
 width="1080.000000pt" height="1080.000000pt" viewBox="0 0 1080.000000 1080.000000"
 preserveAspectRatio="xMidYMid meet">
<metadata>
Created by potrace 1.14, written by Peter Selinger 2001-2017
</metadata>
<g transform="translate(0.000000,1080.000000) scale(0.100000,-0.100000)"
fill="#000000" stroke="none">
<path d="M0 5400 l0 -5400 5400 0 5400 0 0 5400 0 5400 -5400 0 -5400 0 0
-5400z m7365 4181 c199 -30 326 -56 467 -97 663 -193 1221 -622 1655 -1274
478 -718 700 -1568 643 -2455 -39 -586 -156 -1134 -346 -1617 -30 -75 -54
-140 -54 -144 0 -4 10 -18 22 -32 30 -31 28 -83 -8 -192 -92 -277 -334 -436
-694 -456 -67 -4 -111 -1 -150 9 -62 17 -70 15 -70 -16 0 -15 -11 -29 -32 -42
-18 -10 -38 -24 -44 -29 -32 -30 -51 -42 -60 -39 -6 2 -25 -10 -44 -27 -18
-16 -41 -30 -51 -30 -29 0 -57 -47 -70 -120 -7 -39 -17 -70 -22 -70 -8 0 -236
139 -256 156 -4 4 29 107 38 117 4 4 34 -5 66 -19 44 -21 75 -27 127 -28 72 0
88 8 88 47 0 15 -6 16 -42 10 -87 -16 -161 -9 -221 21 l-57 28 -35 -31 c-20
-17 -49 -37 -65 -46 -27 -14 -30 -14 -38 2 -5 10 -12 38 -16 63 -4 25 -13 58
-21 74 -15 27 -14 30 20 67 44 50 72 104 89 179 l14 60 -74 0 c-41 0 -74 2
-74 4 0 2 7 39 16 82 27 131 6 232 -61 294 l-27 25 22 -37 c39 -66 37 -130 -9
-363 -23 -115 -44 -217 -47 -226 -2 -8 -20 -21 -40 -28 -19 -7 -54 -31 -77
-54 -23 -23 -54 -50 -69 -59 l-26 -17 -16 46 c-9 26 -16 59 -16 73 0 25 18
140 36 228 l7 32 -67 0 -66 0 6 28 c18 80 26 102 53 139 17 23 47 49 70 59 38
17 40 19 24 36 -38 42 -121 0 -164 -84 -11 -21 -48 -179 -84 -359 -36 -176
-69 -328 -75 -338 -6 -12 -26 -20 -57 -24 -41 -5 -51 -3 -67 16 -10 12 -23 22
-30 22 -15 0 -59 45 -51 53 3 4 9 2 13 -4 4 -6 18 -14 32 -18 23 -6 23 -5 6 6
-47 32 -64 56 -75 107 -11 52 -10 55 18 98 27 41 49 113 66 221 l7 42 -136 0
c-78 0 -136 -4 -136 -9 0 -5 5 -22 10 -38 10 -27 9 -27 -20 7 -16 19 -39 53
-51 76 l-22 41 29 38 c24 32 29 48 29 96 0 51 -4 62 -28 86 l-28 28 7 -30 c3
-16 7 -32 6 -35 0 -47 -7 -65 -34 -95 -30 -35 -31 -37 -16 -68 9 -18 45 -71
80 -117 67 -87 128 -187 128 -208 0 -7 -15 -12 -35 -12 -20 0 -50 -6 -68 -14
-41 -17 -132 -113 -140 -147 -9 -34 -71 -89 -101 -89 -22 0 -37 -14 -100 -90
-16 -19 -26 -27 -23 -17 11 31 -7 18 -33 -23 -26 -44 -33 -44 -100 -10 l-35
17 -48 -42 c-95 -86 -205 -118 -313 -92 -36 9 -78 25 -92 36 l-26 19 -49 -44
c-27 -24 -55 -44 -63 -44 -14 0 -29 44 -40 120 -8 55 -23 87 -24 51 0 -31 -17
-16 -21 19 -2 18 7 35 32 60 39 39 74 127 65 164 -3 12 -21 38 -40 58 -31 32
-35 41 -31 82 7 82 10 86 71 86 53 0 54 0 54 29 0 44 -16 78 -45 97 -24 16
-29 16 -59 1 -44 -21 -62 -62 -91 -214 -14 -71 -25 -130 -25 -131 0 -2 -14 8
-31 22 -45 38 -78 53 -133 61 l-48 8 5 50 c7 58 32 171 53 238 20 63 74 122
142 156 48 24 70 28 137 28 68 0 87 -4 127 -27 l48 -27 5 22 c3 12 23 117 45
232 53 272 56 283 95 322 27 27 41 33 74 33 23 0 41 4 41 9 0 31 57 336 96
511 126 570 192 786 272 880 l29 34 51 -43 c112 -93 249 -270 274 -353 11 -38
28 -52 28 -23 0 62 -127 243 -252 359 -80 75 -81 76 -63 96 35 39 122 88 412
230 l291 143 69 -28 c60 -25 81 -29 178 -29 88 -1 124 4 183 22 40 13 75 29
78 36 3 7 4 52 2 99 l-3 87 -45 -36 c-132 -105 -258 -111 -390 -20 -25 17 -51
32 -58 34 -7 1 -43 24 -80 51 -121 88 -268 180 -338 213 -45 20 -91 53 -132
92 -113 109 -296 195 -484 227 l-68 11 0 53 c0 48 6 62 57 139 45 69 62 86 87
92 60 12 104 53 143 131 67 135 54 217 -39 245 -34 10 -38 14 -24 23 40 30 39
233 -3 350 -73 206 -285 365 -486 365 -83 0 -137 -17 -274 -84 -82 -40 -103
-46 -158 -46 -117 0 -130 -49 -58 -222 5 -14 2 -18 -14 -18 -42 0 -134 -43
-172 -81 -34 -34 -39 -45 -39 -84 0 -65 31 -120 83 -147 34 -18 59 -22 135
-23 88 0 93 -1 87 -20 -4 -11 -9 -103 -12 -205 -6 -198 6 -294 46 -385 22 -49
84 -121 112 -130 10 -4 19 -11 19 -16 0 -5 -19 1 -42 13 -57 29 -196 35 -335
14 -179 -27 -266 -70 -303 -149 -19 -40 -26 -45 -137 -92 -65 -28 -121 -51
-124 -53 -3 -1 -23 35 -44 82 -35 78 -37 89 -31 148 19 194 19 201 -4 268 -49
148 -159 284 -276 341 -82 41 -174 48 -306 26 -136 -23 -175 -26 -186 -15 -6
6 -67 10 -149 10 -112 -1 -151 -5 -208 -22 -177 -55 -274 -153 -317 -322 -17
-69 -20 -101 -15 -193 3 -60 10 -121 15 -134 12 -34 -4 -84 -40 -118 -26 -25
-39 -28 -121 -34 -153 -12 -253 -65 -277 -148 -22 -76 31 -185 167 -344 56
-65 71 -109 49 -142 -9 -13 -68 -61 -131 -105 -257 -181 -291 -240 -246 -414
l18 -70 -92 -120 c-51 -67 -154 -206 -230 -311 -353 -484 -363 -500 -372 -604
-3 -31 0 -82 6 -112 16 -75 127 -271 278 -490 l32 -46 153 23 c209 32 230 32
262 -7 48 -57 25 -141 -46 -168 -13 -5 -117 -23 -233 -41 -115 -17 -211 -33
-213 -35 -4 -4 -52 -248 -52 -268 0 -14 6 -18 28 -15 26 3 28 6 50 117 12 63
27 118 33 121 5 4 56 13 112 20 l101 13 31 -35 c20 -24 42 -37 68 -42 54 -10
104 -63 112 -120 6 -37 11 -45 32 -49 13 -2 26 1 28 7 2 6 22 135 44 285 l40
275 -143 267 -143 266 190 197 c104 108 191 195 194 193 2 -2 -17 -209 -42
-460 -24 -251 -43 -468 -40 -484 3 -15 -12 -145 -34 -288 -21 -143 -37 -263
-34 -267 2 -5 12 -8 22 -8 31 0 159 -69 185 -101 55 -65 55 -104 5 -347 -34
-169 -35 -183 -10 -206 17 -16 23 -16 47 -4 38 18 88 86 113 153 11 30 44 175
72 323 30 161 59 285 72 312 39 81 135 103 193 45 35 -35 32 -81 -32 -409 -30
-158 -54 -300 -52 -314 4 -33 44 -58 81 -48 43 10 94 63 127 129 22 47 39 111
66 257 53 293 72 341 160 419 161 141 410 129 513 -25 107 -162 32 -394 -157
-485 -37 -17 -65 -23 -132 -23 -47 -1 -102 3 -122 8 l-38 8 0 -55 c0 -60 21
-97 68 -121 67 -34 179 -27 278 18 57 26 157 113 179 157 8 14 41 164 74 334
34 169 66 314 73 322 34 41 141 59 172 28 13 -14 19 -13 52 10 51 35 108 48
184 43 175 -13 251 -141 207 -353 l-13 -59 -124 -48 c-68 -26 -126 -46 -128
-43 -2 2 1 41 7 86 14 101 14 112 1 104 -6 -4 -10 7 -10 24 0 21 5 31 15 31
22 0 18 38 -6 50 -69 37 -161 -66 -189 -211 -13 -64 -15 -67 -50 -78 -40 -12
-70 -47 -111 -131 -15 -30 -41 -72 -58 -94 -17 -21 -31 -46 -31 -54 0 -9 -8
-24 -17 -34 -9 -10 -44 -73 -77 -141 l-61 -122 -83 -28 c-158 -53 -340 -45
-450 19 l-44 26 -55 -56 c-30 -31 -81 -68 -112 -83 -50 -25 -66 -28 -161 -28
-93 0 -110 3 -147 24 l-42 24 -36 -31 c-148 -130 -358 -118 -442 26 -39 66
-41 148 -9 300 14 67 26 133 26 145 0 33 -38 65 -87 73 -39 6 -42 4 -48 -17
-3 -13 -16 -78 -30 -143 -14 -66 -33 -132 -42 -147 -20 -33 -68 -59 -109 -59
l-28 0 21 -21 c42 -42 130 -24 168 34 8 12 29 89 46 170 18 80 35 145 39 142
7 -4 -83 -531 -93 -541 -9 -10 -462 237 -494 269 -9 9 -5 42 14 139 25 125 27
128 52 128 64 1 146 29 173 59 32 36 38 97 12 136 -25 38 -40 38 -36 -1 9 -78
-44 -127 -151 -140 -30 -4 -60 -10 -66 -13 -6 -4 -34 -116 -62 -250 -52 -255
-71 -316 -121 -394 -138 -216 -469 -260 -648 -86 -109 106 -120 268 -20 321
44 23 81 23 128 -1 42 -21 62 -52 71 -108 17 -102 191 -111 261 -13 l23 33
-20 16 c-11 9 -82 59 -157 111 -378 260 -684 555 -879 845 -171 255 -271 547
-312 910 -12 104 -6 386 10 510 110 833 689 1684 1615 2376 287 215 652 432
968 576 105 48 102 47 102 31 0 -7 -35 -28 -78 -47 -289 -127 -678 -360 -987
-591 -812 -609 -1350 -1334 -1540 -2075 -55 -213 -69 -333 -69 -565 0 -336 60
-619 191 -900 157 -338 530 -730 1013 -1064 76 -53 143 -96 149 -96 6 0 15 17
21 38 11 42 60 280 60 292 0 4 -38 36 -85 70 -279 202 -543 465 -697 695 -146
217 -240 473 -283 766 -17 123 -20 393 -5 519 103 847 714 1700 1700 2372 244
167 491 303 810 448 364 165 630 352 1133 797 457 405 698 584 974 722 270
134 591 226 918 261 61 6 119 13 130 15 11 2 164 2 340 0 260 -3 346 -7 460
-24z m-3616 -780 c42 -76 46 -80 122 -122 43 -23 79 -45 79 -49 0 -4 -35 -26
-79 -49 -76 -41 -80 -46 -122 -122 -24 -43 -46 -79 -49 -79 -3 0 -25 36 -49
79 -42 76 -46 81 -122 122 -44 23 -79 45 -79 49 0 4 36 26 79 49 76 42 80 46
122 122 23 43 45 79 49 79 4 0 26 -36 49 -79z m6148 -563 c98 -163 247 -461
308 -618 309 -787 370 -1626 190 -2610 -126 -686 -364 -1307 -708 -1845 -121
-190 -331 -465 -354 -465 -7 0 -13 2 -13 5 0 3 38 53 86 112 509 641 841 1428
988 2344 138 858 88 1592 -159 2302 -96 276 -285 659 -432 877 -26 39 -28 50
-10 50 7 0 54 -69 104 -152z m-6122 -756 c-208 -71 -336 -226 -374 -454 l-9
-53 -1 65 c-3 187 81 346 216 411 64 31 159 57 208 58 36 1 33 -2 -40 -27z
m472 -543 c37 -28 87 -62 110 -76 l42 -24 45 26 c124 73 281 22 342 -110 54
-116 6 -252 -109 -310 -91 -45 -205 -31 -274 35 -26 24 -31 7 -8 -24 24 -32
68 -56 103 -56 30 0 33 -2 27 -22 -43 -142 -158 -268 -259 -283 -54 -8 -172
18 -256 58 -80 37 -198 152 -253 248 -36 63 -40 66 -99 84 -43 13 -74 30 -106
61 l-44 43 4 67 c4 60 7 69 37 96 36 32 55 33 154 7 l47 -12 36 42 c48 56 102
81 189 90 69 6 75 9 131 59 32 28 62 52 66 52 4 0 38 -23 75 -51z m-480 -979
l26 -20 -72 0 c-55 0 -71 3 -71 14 0 14 21 22 68 25 13 0 35 -8 49 -19z m793
-30 c12 -8 9 -10 -13 -10 -16 0 -26 4 -22 10 8 12 16 12 35 0z m-636 -66 c176
-81 323 -83 486 -8 47 22 67 26 145 24 98 -1 140 -17 149 -56 3 -12 9 -29 12
-38 5 -14 -11 -16 -148 -16 -98 0 -158 4 -165 11 -8 8 -17 8 -31 0 -13 -7 -93
-11 -214 -11 -186 0 -195 1 -248 26 -30 14 -70 37 -87 50 -31 24 -53 25 -53 3
0 -5 19 -22 42 -39 l41 -30 -101 0 -102 0 0 60 0 60 99 0 c92 0 103 -2 175
-36z m62 -139 c81 -26 208 -30 299 -11 63 13 120 16 265 14 l184 -3 18 -59
c10 -33 16 -62 12 -65 -12 -13 -877 -13 -996 0 l-118 12 0 63 0 64 143 0 c101
0 158 -5 193 -15z m303 -170 c552 -1 498 6 515 -70 l6 -30 -585 -1 -585 0 0
51 c0 29 3 55 8 59 4 5 39 5 77 0 39 -4 292 -8 564 -9z m541 -177 c6 -24 15
-58 20 -77 l9 -34 -452 7 c-249 3 -523 9 -609 12 l-158 7 0 58 0 58 103 4 c56
1 321 4 589 5 l487 2 11 -42z m-345 -143 c11 -2 102 -4 201 -4 l182 -1 7 -46
c3 -26 9 -53 12 -60 7 -18 -267 -19 -840 -2 l-419 12 6 36 c3 19 6 45 6 58 l0
23 413 -7 c226 -3 421 -8 432 -9z m15 -161 c212 -4 388 -9 391 -13 4 -3 9 -31
12 -62 l5 -57 -36 -6 c-76 -12 -736 -6 -902 9 -91 8 -204 15 -252 15 l-88 0 0
67 0 66 243 -7 c133 -3 415 -9 627 -12z m-425 -174 c82 -8 261 -11 483 -8
l353 4 -5 -25 c-3 -15 -8 -53 -11 -85 l-7 -59 -276 7 c-153 3 -338 13 -412 21
-77 8 -231 15 -359 15 l-223 0 6 23 c3 12 6 46 6 76 l0 54 158 -6 c86 -3 216
-11 287 -17z m205 -190 c47 -6 201 -12 343 -13 l258 -2 -6 -45 c-13 -93 49
-84 -524 -76 -278 3 -557 9 -618 12 l-113 7 0 70 0 70 288 -6 c158 -3 325 -11
372 -17z m73 -177 c273 -3 497 -9 497 -13 0 -4 -5 -33 -12 -64 l-11 -58 -71 6
c-39 3 -294 8 -566 11 -272 3 -512 8 -532 11 l-38 6 0 60 0 61 118 -6 c64 -4
341 -10 615 -14z m-78 -159 c292 -3 533 -8 536 -10 4 -2 2 -28 -5 -56 l-11
-53 -593 -3 -592 -2 0 63 c0 35 3 67 7 71 5 4 35 5 68 2 33 -3 299 -8 590 -12z
m505 -174 c0 -6 -7 -40 -16 -75 l-16 -65 -569 0 -569 0 0 75 0 75 585 0 c400
0 585 -3 585 -10z m-364 -187 l321 -6 -11 -45 -10 -44 -130 6 c-72 3 -297 9
-500 12 l-368 7 16 -31 c21 -41 20 -106 -1 -144 -20 -34 -79 -68 -119 -68
-142 0 -186 208 -56 266 22 9 43 25 45 36 5 17 21 18 249 18 133 0 387 -3 564
-7z m-63 -123 c186 -4 341 -11 344 -14 3 -3 0 -28 -7 -57 l-13 -52 -356 6
c-196 4 -390 7 -432 7 l-77 0 -6 34 c-4 19 -16 46 -27 60 l-20 26 128 0 c70
-1 280 -5 466 -10z m2765 -577 c2 -18 -9 -72 -23 -120 -35 -116 -159 -429
-224 -568 -65 -137 -111 -268 -144 -410 -32 -139 -42 -215 -28 -215 5 0 31 32
56 71 91 141 263 279 347 279 72 0 94 -43 84 -165 -5 -58 -4 -85 4 -85 6 0 29
12 51 26 22 14 102 56 177 94 l137 68 39 133 c113 386 257 776 323 875 27 41
42 54 57 52 37 -5 32 -64 -19 -216 -54 -159 -153 -404 -220 -545 -55 -117
-105 -267 -133 -397 -28 -134 -35 -190 -23 -190 5 0 31 32 56 70 129 194 329
323 405 262 24 -20 25 -25 24 -126 -1 -58 3 -106 8 -106 4 0 27 12 51 27 23
14 103 57 178 94 75 38 140 76 144 86 4 10 29 81 55 158 121 352 245 601 364
728 48 51 96 47 96 -9 0 -79 -132 -357 -291 -614 -133 -213 -154 -255 -184
-370 -43 -166 -76 -445 -61 -524 6 -29 11 -36 30 -36 30 0 49 23 208 235 164
220 216 294 256 365 67 120 156 192 237 194 51 1 72 -15 81 -59 15 -79 -102
-237 -219 -295 -33 -16 -68 -30 -78 -30 -35 0 -47 -46 -29 -112 16 -58 35 -71
91 -65 99 12 213 87 404 266 97 91 146 131 160 129 44 -6 27 -38 -75 -138
-131 -130 -251 -222 -356 -276 -70 -36 -95 -44 -140 -44 -97 0 -137 39 -153
149 l-6 44 -120 -164 c-136 -187 -173 -230 -221 -259 -43 -27 -81 -23 -108 13
-19 26 -21 41 -21 185 1 125 6 181 25 275 30 149 26 154 -68 108 -92 -45 -243
-135 -280 -166 -17 -15 -52 -62 -78 -105 -83 -138 -197 -235 -250 -211 -67 30
21 169 189 296 49 37 75 88 93 186 29 154 -32 159 -184 15 -122 -116 -177
-212 -262 -456 -47 -133 -68 -166 -91 -143 -15 15 -1 150 45 426 18 108 29
197 24 197 -14 0 -185 -88 -267 -137 -98 -59 -132 -91 -178 -171 -72 -125
-194 -233 -244 -217 -75 24 -20 126 145 268 39 33 81 75 92 94 45 71 59 234
21 241 -23 5 -88 -30 -144 -76 -114 -96 -203 -246 -290 -492 -40 -112 -52
-135 -68 -135 -18 0 -20 6 -18 80 0 44 15 165 32 268 17 103 31 193 31 198 0
6 -38 -24 -84 -67 -103 -98 -176 -143 -244 -151 -114 -13 -139 58 -106 300 8
58 -10 64 -51 15 -51 -63 -219 -207 -269 -232 -63 -32 -90 -33 -110 -4 -32 46
-8 191 53 323 44 94 61 111 90 95 27 -14 27 -17 -9 -81 -57 -102 -96 -258 -70
-274 20 -13 152 99 296 251 81 85 150 154 154 154 3 0 14 -6 24 -13 16 -12 16
-19 -14 -132 -32 -124 -48 -262 -36 -310 7 -26 10 -27 48 -22 57 8 125 58 249
184 l107 108 62 210 c154 526 303 882 364 873 16 -2 22 -11 24 -35z m2180 -89
c-114 -164 -411 -514 -425 -501 -4 4 54 170 77 222 22 50 42 125 47 176 7 75
-13 114 -67 130 -22 7 -40 18 -40 25 0 9 11 9 48 -3 55 -17 219 -12 317 11
102 23 102 24 43 -60z m-3660 22 c93 -92 -42 -404 -281 -652 -54 -57 -96 -108
-92 -114 3 -5 32 -10 63 -10 105 0 148 -23 203 -109 39 -60 38 -114 -3 -227
-75 -206 -185 -380 -338 -535 -136 -138 -217 -181 -300 -159 -77 21 -103 102
-60 193 58 123 297 361 558 554 39 30 79 65 88 78 15 23 14 27 -3 62 -10 21
-34 47 -53 58 -67 38 -224 14 -337 -52 -27 -16 -50 -22 -63 -18 -43 14 -25 40
109 157 219 194 322 313 396 459 44 86 75 179 75 224 0 117 -182 17 -348 -193
-183 -231 -407 -632 -582 -1043 -38 -89 -56 -111 -89 -107 -38 4 -47 64 -32
208 29 269 86 524 184 820 30 91 65 199 77 240 13 41 28 81 33 88 13 16 44 15
50 -2 8 -19 5 -29 -85 -311 -94 -295 -139 -471 -167 -661 -12 -76 -24 -152
-26 -167 -11 -66 25 -7 164 269 204 403 346 633 488 792 149 167 299 231 371
158z m-3352 -877 c704 -386 1581 -700 2427 -869 31 -6 57 -16 57 -22 0 -13
-18 -10 -275 47 -519 115 -1032 279 -1535 490 -284 119 -810 387 -810 413 0 6
1 12 3 12 2 0 61 -32 133 -71z m3657 -706 c-7 -2 -19 -2 -25 0 -7 3 -2 5 12 5
14 0 19 -2 13 -5z m1582 -152 c15 -25 -399 -113 -685 -145 -465 -53 -1083 -45
-1555 18 -195 27 -205 29 -205 37 0 12 40 11 115 -1 129 -21 492 -51 740 -61
506 -21 1042 27 1455 130 139 35 128 33 135 22z"/>
<path d="M7612 7774 c-51 -25 -135 -107 -155 -152 -9 -20 -15 -22 -59 -16
-124 17 -225 -85 -264 -264 -8 -37 -18 -85 -24 -107 -14 -58 -12 -161 4 -199
22 -53 74 -105 118 -118 45 -13 40 -17 87 61 48 80 136 95 236 41 53 -28 67
-31 121 -28 47 3 71 11 108 35 78 52 159 52 226 1 29 -23 70 -86 70 -109 0 -9
6 -22 14 -28 35 -29 142 56 184 147 21 46 23 64 20 135 -4 97 -36 177 -108
272 -25 33 -52 76 -60 95 -43 106 -101 152 -199 158 -60 4 -70 8 -107 42 -40
37 -94 60 -140 60 -11 0 -43 -12 -72 -26z"/>
<path d="M7428 6924 c-16 -8 -28 -19 -28 -24 0 -6 -16 -27 -35 -47 -46 -49
-61 -94 -46 -144 32 -106 177 -130 238 -40 30 45 31 118 2 155 -17 21 -18 26
-5 26 40 0 -3 59 -57 79 -35 14 -36 14 -69 -5z m73 -41 c12 -15 12 -16 -4 -10
-10 4 -28 7 -38 7 -11 0 -17 5 -14 10 10 16 41 12 56 -7z"/>
<path d="M7819 6911 c-28 -28 -39 -61 -20 -61 5 0 0 -17 -10 -37 -24 -48 -24
-90 1 -130 72 -119 250 -76 250 60 0 43 -12 70 -45 107 -81 88 -84 90 -115 90
-22 0 -41 -9 -61 -29z m86 -21 c3 -5 -3 -10 -15 -10 -12 0 -31 -5 -43 -11 -22
-12 -22 -12 -3 10 20 22 51 28 61 11z"/>
<path d="M7666 6883 c-6 -21 -56 -233 -56 -239 0 -2 32 -4 70 -4 44 0 70 4 70
11 0 13 -69 241 -74 247 -2 2 -7 -5 -10 -15z"/>
<path d="M7190 6866 c0 -8 13 -17 29 -21 16 -3 35 -13 42 -21 16 -20 29 -18
29 5 0 11 -10 27 -22 35 -28 20 -78 21 -78 2z"/>
<path d="M8135 6856 c-14 -14 -25 -32 -25 -41 0 -21 27 -19 39 4 6 10 22 22
36 25 31 8 28 30 -3 34 -13 2 -32 -7 -47 -22z"/>
<path d="M7554 6558 c-10 -16 39 -55 86 -68 59 -16 138 9 160 50 16 31 -15 38
-44 11 -38 -35 -87 -38 -140 -7 -51 30 -52 30 -62 14z"/>
<path d="M8474 6030 c-84 -22 -192 -74 -201 -97 -11 -29 26 -44 110 -42 69 1
81 -1 103 -22 47 -44 28 -112 -49 -183 -48 -44 -49 -66 -2 -66 19 0 35 -2 35
-4 0 -2 -13 -30 -30 -62 -32 -63 -35 -74 -21 -74 4 0 23 30 41 66 29 57 90
124 111 124 4 0 -13 -30 -37 -66 -24 -36 -44 -69 -44 -74 0 -27 101 -15 169
19 21 11 56 40 78 65 l40 45 -5 -53 c-10 -123 69 -53 97 86 28 136 -41 288
-154 339 -52 24 -148 24 -241 -1z"/>
<path d="M6937 4758 l-98 -383 36 -170 c35 -166 54 -231 61 -209 3 5 -13 93
-35 195 l-39 184 94 371 c52 204 94 376 94 382 0 7 -3 12 -8 12 -4 0 -51 -172
-105 -382z"/>
<path d="M8414 5123 c2 -10 22 -109 42 -220 23 -119 43 -203 49 -203 8 0 -2
69 -26 198 -48 244 -47 242 -60 242 -6 0 -8 -8 -5 -17z"/>
<path d="M8116 4978 c-3 -18 -10 -65 -15 -105 -31 -206 -149 -454 -317 -664
-34 -43 -49 -69 -40 -69 15 0 128 145 183 235 93 152 153 296 182 432 26 121
35 203 22 203 -5 0 -12 -15 -15 -32z"/>
<path d="M8633 4582 c9 -33 7 -46 -11 -83 -12 -25 -35 -53 -52 -63 -31 -18
-109 -24 -132 -10 -11 6 -11 5 0 -8 18 -23 75 -48 107 -48 41 0 95 30 116 64
25 41 25 112 -1 154 -27 43 -39 41 -27 -6z"/>
<path d="M7705 4519 c4 -21 -7 -104 -29 -224 -19 -104 -34 -190 -33 -192 2 -1
16 6 33 16 28 17 30 24 57 178 26 145 27 163 14 194 -7 19 -22 40 -31 48 -16
14 -17 12 -11 -20z"/>
<path d="M6378 4312 c2 -20 -19 -152 -46 -292 -147 -757 -166 -868 -154 -894
6 -14 20 -26 29 -26 15 0 22 24 46 158 16 86 33 178 38 205 l11 47 104 0 c65
0 104 4 104 10 0 6 -29 84 -64 173 -36 89 -67 174 -71 188 -4 14 7 97 25 190
33 172 34 227 4 260 -25 27 -30 24 -26 -19z"/>
<path d="M9395 4208 c42 -76 41 -118 -9 -363 -24 -121 -48 -233 -52 -249 l-7
-29 33 19 c17 10 36 28 40 40 5 11 25 103 45 205 41 201 42 257 7 325 -11 22
-34 53 -52 69 l-31 30 26 -47z"/>
<path d="M8551 4200 c-5 -17 -15 -30 -20 -30 -6 0 -8 -12 -5 -27 3 -16 -22
-166 -55 -334 -34 -169 -61 -315 -61 -326 0 -18 36 -61 44 -52 1 2 31 150 65
329 52 273 60 331 51 357 -8 21 -8 43 -2 67 13 44 -2 58 -17 16z"/>
<path d="M9026 4109 c-14 -11 -31 -29 -37 -40 -11 -21 -99 -460 -99 -495 0
-21 35 -74 48 -74 4 0 8 17 8 38 2 53 74 441 89 479 16 38 55 66 95 67 36 1
38 9 8 30 -31 22 -80 20 -112 -5z"/>
<path d="M1995 3541 l-60 -6 29 -22 c28 -22 77 -30 110 -17 23 9 21 54 -1 52
-10 -1 -45 -4 -78 -7z"/>
<path d="M6744 3527 c-4 -10 4 -28 19 -47 31 -36 42 -95 28 -147 -16 -59 -81
-113 -135 -113 -30 0 -34 -17 -8 -36 22 -17 64 -17 105 0 97 40 125 172 55
261 -11 14 -18 32 -15 39 3 8 -5 24 -18 36 -22 20 -25 21 -31 7z"/>
<path d="M4162 3407 c-12 -7 -30 -23 -39 -36 -16 -23 -43 -118 -43 -152 0 -40
125 -27 172 18 51 49 41 145 -18 172 -31 14 -43 14 -72 -2z"/>
<path d="M1903 3022 c10 -12 60 -42 70 -42 3 0 7 11 9 24 5 23 2 25 -43 28
-38 2 -45 0 -36 -10z"/>
<path d="M4466 6848 c-37 -19 -38 -22 -22 -34 10 -7 40 -18 67 -25 l49 -13 0
-52 c0 -46 -2 -52 -19 -47 -11 3 -22 15 -25 26 -5 21 -7 21 -35 -10 -17 -18
-34 -33 -38 -33 -4 0 -20 14 -35 32 -24 30 -27 31 -34 14 -4 -11 0 -30 10 -47
13 -22 14 -33 6 -48 -16 -32 -12 -57 16 -91 90 -106 258 -97 339 18 27 40 30
51 30 122 0 72 -3 82 -31 121 -44 61 -101 89 -178 89 -42 -1 -73 -7 -100 -22z"/>
<path d="M3880 6831 c-19 -11 -46 -31 -59 -45 -22 -23 -23 -26 -6 -26 20 0
162 67 171 81 10 16 -71 8 -106 -10z"/>
<path d="M3580 6740 c0 -16 7 -20 33 -20 18 0 49 -9 69 -20 24 -12 39 -16 43
-9 16 25 -57 69 -115 69 -23 0 -30 -4 -30 -20z"/>
<path d="M4105 6680 c-22 -25 -90 -28 -99 -5 -9 24 -38 19 -34 -7 2 -13 -8
-33 -29 -53 -51 -51 -56 -132 -12 -176 17 -17 29 -20 61 -15 54 9 110 39 142
76 38 46 43 76 17 111 -14 19 -19 37 -15 53 8 32 -9 40 -31 16z"/>
<path d="M4247 6537 c-15 -50 -28 -95 -27 -99 0 -10 130 -10 130 -1 0 18 -62
193 -68 193 -4 0 -20 -42 -35 -93z"/>
<path d="M4144 6465 c-38 -39 -92 -65 -134 -65 -18 0 -29 -4 -25 -10 11 -18
98 -11 132 10 30 18 68 73 61 89 -2 4 -17 -7 -34 -24z"/>
<path d="M4372 6371 c-66 -56 -124 -59 -194 -10 -38 28 -62 11 -32 -22 63 -70
177 -66 257 9 53 50 25 71 -31 23z"/>
<path d="M8807 3008 c-92 -166 -161 -324 -155 -358 2 -14 39 49 111 188 59
115 107 214 107 220 0 31 -32 5 -63 -50z"/>
<path d="M9104 2354 c-45 -22 -77 -58 -124 -143 -55 -97 -43 -109 43 -47 77
54 133 117 142 157 11 50 -7 60 -61 33z"/>
<path d="M5369 2088 c-273 -219 -477 -434 -495 -525 -5 -26 -2 -34 20 -49 23
-14 33 -15 66 -5 51 15 142 83 210 157 130 141 321 474 272 474 -4 0 -37 -23
-73 -52z"/>
</g>
</svg>
